<svg xmlns:dc="http://purl.org/dc/elements/1.1/" xmlns:cc="http://creativecommons.org/ns#" xmlns:rdf="http://www.w3.org/1999/02/22-rdf-syntax-ns#" xmlns:svg="http://www.w3.org/2000/svg" xmlns="http://www.w3.org/2000/svg" id="svg2" version="1.1" viewBox="90.17 66.82 456.17 453.23">
  <metadata id="metadata10">
  </metadata>
  <defs id="defs8"/>
  <path id="path4" style="fill:#1b1918;fill-rule:evenodd" d="m 203.1312,207.0119 54.831,0 0,20.2367 -35.9252,0.0497 0.06,54.7093 28.2014,0.042 0.0943,20.5024 -28.2717,-0.0608 -0.1149,87.7161 -18.8749,0 0,-183.1954 z m 63.3699,-0.5323 18.8766,0 0,183.7277 -18.8766,0 0,-183.7277 z m 103.8194,183.1946 -18.8766,0 -0.1217,-87.3416 -26.0142,-0.004 -0.4071,87.363 -17.052,-0.0172 0,-183.1946 44.518,0 17.9536,36.2552 0,146.9394 z m -18.8723,-111.7239 -26.0708,0 0,-51.2339 16.1675,-0.0531 9.9033,24.0172 0,27.2698 z m 23.0719,-70.9384 57.8222,0 -0.1972,20.571 -18.9169,-0.0463 -0.2117,162.1376 -18.8758,0 -0.8416,-162.0262 -18.803,-0.1191 0.024,-20.517 z M 318.2578,520.0546 C 192.31,520.0546 90.1712,418.5733 90.1712,293.4373 90.1712,168.303 192.31,66.8217 318.2578,66.8217 c 125.9478,0 228.0866,101.4813 228.0866,226.6156 0,125.136 -102.1388,226.6173 -228.0866,226.6173 z M 127.7034,202.1558 c 5.1586,-31.8465 25.53,-55.3126 58.2224,-74.2295 71.3696,-47.0986 184.6287,-47.8083 266.1382,1.6584 29.427,15.349 46.3839,38.7971 54.3433,69.1857 16.4452,86.4143 2.1152,161.8968 -34.2831,227.1735 -39.7374,90.9584 -249.9449,92.5037 -299.3276,10.6172 -41.8304,-56.6933 -62.212,-151.2016 -45.0932,-234.4053 z m 308.0199,237.2036 c -47.0883,47.738 -203.4933,37.4876 -232.1953,0 -35.1153,-77.1718 -47.7406,-156.2171 -43.4227,-236.6765 -1.2505,-26.741 7.5275,-44.7657 26.3322,-54.0733 65.3042,-29.3182 195.8887,-32.5398 256.4594,-1.1802 25.008,9.6719 34.1631,33.7508 33.1398,68.8335 2.0064,88.029 -16.0072,160.8084 -40.3134,223.0965 z"/>
</svg>